<svg viewBox="0 0 330 200" xmlns="http://www.w3.org/2000/svg"><g><g><g><g><g><line x1="51.5625" y1="162.1127849556315" x2="46.5625" y2="162.1127849556315" style="visibility: inherit;" fill="rgb(0, 0, 0)" stroke="rgb(204, 204, 204)" stroke-width="1px"></line></g><g transform="translate(41.5625, 0)"><text x="0" y="162.1127849556315" dx="0em" dy="0.3em" style="text-anchor: end; visibility: inherit; font-family: Roboto, sans-serif; font-size: 12px; font-weight: 200;" fill="rgb(255, 255, 255)" stroke="none" stroke-width="1px">0.06</text></g><line x1="51.5625" y1="0" x2="51.5625" y2="177" fill="rgb(0, 0, 0)" stroke="rgb(204, 204, 204)" stroke-width="1px"></line></g></g><g transform="translate(51, 0)" clip-path="url(#clip_0)"><clipPath id="clip_0"><rect width="278" height="177"></rect></clipPath><g><g><g><line x1="0" y1="0" x2="0" y2="177" fill="rgb(0, 0, 0)" stroke="rgb(189, 189, 189)" stroke-width="1px" opacity="0.25"></line><line x1="30.9375" y1="0" x2="30.9375" y2="177" fill="rgb(0, 0, 0)" stroke="rgb(189, 189, 189)" stroke-width="1px" opacity="0.25"></line><line x1="61.875" y1="0" x2="61.875" y2="177" fill="rgb(0, 0, 0)" stroke="rgb(189, 189, 189)" stroke-width="1px" opacity="0.25"></line><line x1="92.8125" y1="0" x2="92.8125" y2="177" fill="rgb(0, 0, 0)" stroke="rgb(189, 189, 189)" stroke-width="1px" opacity="0.25"></line><line x1="123.75" y1="0" x2="123.75" y2="177" fill="rgb(0, 0, 0)" stroke="rgb(189, 189, 189)" stroke-width="1px" opacity="0.25"></line><line x1="154.6875" y1="0" x2="154.6875" y2="177" fill="rgb(0, 0, 0)" stroke="rgb(189, 189, 189)" stroke-width="1px" opacity="0.25"></line><line x1="185.625" y1="0" x2="185.625" y2="177" fill="rgb(0, 0, 0)" stroke="rgb(189, 189, 189)" stroke-width="1px" opacity="0.25"></line><line x1="216.5625" y1="0" x2="216.5625" y2="177" fill="rgb(0, 0, 0)" stroke="rgb(189, 189, 189)" stroke-width="1px" opacity="0.25"></line><line x1="247.5" y1="0" x2="247.5" y2="177" fill="rgb(0, 0, 0)" stroke="rgb(189, 189, 189)" stroke-width="1px" opacity="0.25"></line><line x1="278.4375" y1="0" x2="278.4375" y2="177" fill="rgb(0, 0, 0)" stroke="rgb(189, 189, 189)" stroke-width="1px" opacity="0.25"></line></g><g><line x1="0" y1="162.1127849556315" x2="278.4375" y2="162.1127849556315" fill="rgb(0, 0, 0)" stroke="rgb(189, 189, 189)" stroke-width="1px" opacity="0.25"></line></g></g></g><g><g><line x1="30.9375" y1="0" x2="30.9375" y2="177" fill="rgb(0, 0, 0)" stroke="rgb(153, 153, 153)" stroke-width="1.5px"></line></g></g><g><g><g><g><g><path stroke="rgb(204, 51, 17)" stroke-width="2px" d="M40.212562500000004,-35.19453583881594L42.532875000000004,1.685665012221957L44.853187500000004,25.28571428571394L47.1735,40.99168054403082L49.4938125,51.93886272101473L51.814125,59.96238064647663L54.1344375,65.51174387297756L56.45475,70.07604564547559L58.7750625,74.49260554192023L61.095375,78.03746968262676L63.4156875,81.58034870718326L65.73599999999999,84.89199988526397L68.0563125,87.93409515861157L70.376625,90.93841771774922L72.69693749999999,93.32330141375749L75.01725,95.88976598668809L77.33756249999999,98.48301577043023L79.657875,100.66736661792987L81.97818749999999,102.40104472374517L84.2985,104.41970903674937L86.6188125,106.38869011256621L88.939125,108.12195918924469L91.2594375,109.62706160772991L93.57975,111.4106682227798L95.9000625,113.13582084691359L98.22037499999999,114.77905630862102L100.5406875,116.51591958508517L102.86099999999999,118.3777327158266L105.1813125,119.96489420122082L107.50162499999999,120.95358159521662L109.8219375,123.40703219471517L112.14224999999999,124.8733542711628L114.4625625,125.81536281891847L116.78287499999999,127.04584039006765L119.1031875,127.8546984660083L121.4235,128.93382120389603L123.7438125,130.03884950831252L126.064125,131.12094564969115L128.3844375,131.86646865289097L130.70475000000002,132.62913976170418L133.0250625,133.29337818664808L135.345375,134.1557269623175L137.6656875,135.00429566420468L139.986,135.11014925423066L142.30631250000002,135.9451831651731L144.626625,137.33236337684113L146.9469375,138.0084241865496L149.26725,138.4016851401221L151.58756250000002,138.64121905430716L153.907875,138.84493247033595L156.2281875,139.5663152696174L158.54850000000002,139.7917145599708L160.86881250000002,140.56054267543388L163.189125,140.9884908921267L165.5094375,141.58541357008568L167.82975000000002,141.62675933944377L170.1500625,142.370244071889L172.470375,142.55939538197035L174.7906875,142.82090543331495L177.11100000000002,143.47361194519266L179.4313125,143.76277251568877L181.751625,143.95230232391836L184.0719375,144.09811679937306L186.39225000000002,144.51224773053147L188.7125625,145.00997019882078L191.032875,144.98285708606033L193.35318750000002,145.44026817916145L195.67350000000002,145.92156052093918L197.9938125,146.10872463930053L200.314125,146.74845925135995L202.63443750000002,146.99566398431958L204.95475,147.3464798759609L207.2750625,147.39270018133865L209.595375,147.7791836538658L211.91568750000002,148.09122774644672L214.236,148.30751357051992L216.5563125,148.08531545444498L218.876625,148.7972683781732L221.19693750000002,148.7094429315197L223.51725,149.43539655726107L225.8375625,149.47862971846374L228.15787500000002,150.07786527754382L230.47818750000002,150.12066031081397L232.7985,150.0863109617542L235.1188125,150.06858897437752L237.43912500000002,150.0903193145702L239.7594375,150.6369587236491L242.07975,150.73834182062507L244.4000625,150.8261129451983L246.72037500000002,151.64388324092252L249.0406875,151.73588244627317L251.361,151.2167199916783L253.6813125,151.94422707185714L256.001625,151.71428571428558L258.3219375,151.97650364085996L260.64225,152.18730667441073L262.9625625,152.2079593247215" style="fill: none;" fill="none"></path></g></g></g></g><g opacity="0.2"><g><g><g><path stroke="rgb(204, 51, 17)" stroke-width="2px" d="M35.571937500000004,-24.432460115953614L37.892250000000004,24.00855213201628L40.212562500000004,42.1657773356874L42.532875000000004,51.74156459831725L44.853187500000004,58.77588063106344L47.1735,63.84149295189856L49.4938125,68.09432818504891L51.814125,71.90148958529437L54.1344375,73.80300318947005L56.45475,76.91585528719264L58.7750625,81.12607322987485L61.095375,83.36426019265318L63.4156875,86.90880107157246L65.73599999999999,89.87400783866735L68.0563125,92.51064204908819L70.376625,95.4587998686946L72.69693749999999,96.90957517650216L75.01725,99.7501394077975L77.33756249999999,102.38395426786677L79.657875,103.95178751360271L81.97818749999999,105.00655075713605L84.2985,107.45450926954409L86.6188125,109.34864896465673L88.939125,110.72689416277004L91.2594375,111.88851097746098L93.57975,114.09141481714212L95.9000625,115.72854366784229L98.22037499999999,117.2484408352467L100.5406875,119.12627821424401L102.86099999999999,121.17627225527929L105.1813125,122.34986460069688L107.50162499999999,122.43825221602208L109.8219375,127.09732247873903L112.14224999999999,127.07644592445946L114.4625625,127.2298640110212L116.78287499999999,128.89409714671635L119.1031875,129.06908276817757L121.4235,130.5544588396863L123.7438125,131.6984404790048L126.064125,132.74605418186755L128.3844375,132.98568518437472L130.70475000000002,133.77412184096883L133.0250625,134.29047562076244L135.345375,135.45049731694124L137.6656875,136.27835634738364L139.986,135.26894841455018L142.30631250000002,137.19890342661577L144.626625,139.41636296871616L146.9469375,139.02328177765904L149.26725,138.9918358008634L151.58756250000002,139.0006160820938L153.907875,139.15057213929538L156.2281875,140.64926208967842L158.54850000000002,140.1298986372258L160.86881250000002,141.71477608505515L163.189125,141.63072020746483L165.5094375,142.48139498791124L167.82975000000002,141.6887808576864L170.1500625,143.48639810649868L172.470375,142.8431823037346L174.7906875,143.21328512305166L177.11100000000002,144.45338603576758L179.4313125,144.19665350704284L181.751625,144.2366572331224L184.0719375,144.31687414104857L186.39225000000002,145.13373160909538L188.7125625,145.75696919255122L191.032875,144.94218864850723L193.35318750000002,146.12673554714638L195.67350000000002,146.64388735179503L197.9938125,146.38952952017385L200.314125,147.70874737080777L202.63443750000002,147.36657349843784L204.95475,147.87290999516802L207.2750625,147.462034218805L209.595375,148.3591592328341L211.91568750000002,148.5594570830568L214.236,148.63202070170027L216.5563125,147.75210097671436L218.876625,149.8660477107468L221.19693750000002,148.5777176831313L223.51725,150.5252107150706L225.8375625,149.54348259194535L228.15787500000002,150.9773206571483L230.47818750000002,150.18485592924407L232.7985,150.03478891486105L235.1188125,150.0420065194943L237.43912500000002,150.12291561602052L239.7594375,151.45741880014282L242.07975,150.89043368891L244.4000625,150.95778254037035L246.72037500000002,152.87166020381844L249.0406875,151.87389543626634L251.361,150.43842760293762L253.6813125,153.03637519912192L256.001625,151.36946223758878L258.3219375,152.36994576486353L260.64225,152.50358569510848L262.9625625,152.23893901482094" style="fill: none;" fill="none"></path></g></g></g></g></g></g><g transform="translate(51, 177)" clip-path="url(#clip_1)"><clipPath id="clip_1"><rect width="278" height="23"></rect></clipPath><g><g><line x1="0" y1="0" x2="0" y2="5" style="visibility: inherit;" fill="rgb(0, 0, 0)" stroke="rgb(204, 204, 204)" stroke-width="1px"></line><line x1="30.9375" y1="0" x2="30.9375" y2="5" style="visibility: inherit;" fill="rgb(0, 0, 0)" stroke="rgb(204, 204, 204)" stroke-width="1px"></line><line x1="61.875" y1="0" x2="61.875" y2="5" style="visibility: inherit;" fill="rgb(0, 0, 0)" stroke="rgb(204, 204, 204)" stroke-width="1px"></line><line x1="92.8125" y1="0" x2="92.8125" y2="5" style="visibility: inherit;" fill="rgb(0, 0, 0)" stroke="rgb(204, 204, 204)" stroke-width="1px"></line><line x1="123.75" y1="0" x2="123.75" y2="5" style="visibility: inherit;" fill="rgb(0, 0, 0)" stroke="rgb(204, 204, 204)" stroke-width="1px"></line><line x1="154.6875" y1="0" x2="154.6875" y2="5" style="visibility: inherit;" fill="rgb(0, 0, 0)" stroke="rgb(204, 204, 204)" stroke-width="1px"></line><line x1="185.625" y1="0" x2="185.625" y2="5" style="visibility: inherit;" fill="rgb(0, 0, 0)" stroke="rgb(204, 204, 204)" stroke-width="1px"></line><line x1="216.5625" y1="0" x2="216.5625" y2="5" style="visibility: inherit;" fill="rgb(0, 0, 0)" stroke="rgb(204, 204, 204)" stroke-width="1px"></line><line x1="247.5" y1="0" x2="247.5" y2="5" style="visibility: inherit;" fill="rgb(0, 0, 0)" stroke="rgb(204, 204, 204)" stroke-width="1px"></line><line x1="278.4375" y1="0" x2="278.4375" y2="5" style="visibility: inherit;" fill="rgb(0, 0, 0)" stroke="rgb(204, 204, 204)" stroke-width="1px"></line></g><g transform="translate(0, 8)"><text x="0" y="0" dx="0em" dy="0.95em" style="text-anchor: middle; visibility: hidden; font-family: Roboto, sans-serif; font-size: 12px; font-weight: 200;" fill="rgb(255, 255, 255)" stroke="none" stroke-width="1px">-5k</text><text x="30.9375" y="0" dx="0em" dy="0.95em" style="text-anchor: middle; visibility: inherit; font-family: Roboto, sans-serif; font-size: 12px; font-weight: 200;" fill="rgb(255, 255, 255)" stroke="none" stroke-width="1px">0</text><text x="61.875" y="0" dx="0em" dy="0.95em" style="text-anchor: middle; visibility: inherit; font-family: Roboto, sans-serif; font-size: 12px; font-weight: 200;" fill="rgb(255, 255, 255)" stroke="none" stroke-width="1px">5k</text><text x="92.8125" y="0" dx="0em" dy="0.95em" style="text-anchor: middle; visibility: inherit; font-family: Roboto, sans-serif; font-size: 12px; font-weight: 200;" fill="rgb(255, 255, 255)" stroke="none" stroke-width="1px">10k</text><text x="123.75" y="0" dx="0em" dy="0.95em" style="text-anchor: middle; visibility: inherit; font-family: Roboto, sans-serif; font-size: 12px; font-weight: 200;" fill="rgb(255, 255, 255)" stroke="none" stroke-width="1px">15k</text><text x="154.6875" y="0" dx="0em" dy="0.95em" style="text-anchor: middle; visibility: inherit; font-family: Roboto, sans-serif; font-size: 12px; font-weight: 200;" fill="rgb(255, 255, 255)" stroke="none" stroke-width="1px">20k</text><text x="185.625" y="0" dx="0em" dy="0.95em" style="text-anchor: middle; visibility: inherit; font-family: Roboto, sans-serif; font-size: 12px; font-weight: 200;" fill="rgb(255, 255, 255)" stroke="none" stroke-width="1px">25k</text><text x="216.5625" y="0" dx="0em" dy="0.95em" style="text-anchor: middle; visibility: inherit; font-family: Roboto, sans-serif; font-size: 12px; font-weight: 200;" fill="rgb(255, 255, 255)" stroke="none" stroke-width="1px">30k</text><text x="247.5" y="0" dx="0em" dy="0.95em" style="text-anchor: middle; visibility: inherit; font-family: Roboto, sans-serif; font-size: 12px; font-weight: 200;" fill="rgb(255, 255, 255)" stroke="none" stroke-width="1px">35k</text><text x="278.4375" y="0" dx="0em" dy="0.95em" style="text-anchor: middle; visibility: hidden; font-family: Roboto, sans-serif; font-size: 12px; font-weight: 200;" fill="rgb(255, 255, 255)" stroke="none" stroke-width="1px">40k</text></g><line x1="0" y1="0" x2="278.4375" y2="0" fill="rgb(0, 0, 0)" stroke="rgb(204, 204, 204)" stroke-width="1px"></line></g></g></g></g></svg>